<svg width="465" height="333" viewBox="0 0 465 333" fill="none" xmlns="http://www.w3.org/2000/svg">
<g filter="url(#filter0_d_17_38)">
<rect x="4" y="163" width="376" height="81" fill="url(#paint0_linear_17_38)"/>
</g>
<path d="M73.2891 197.859C73.1868 196.827 72.7479 196.026 71.9723 195.455C71.1967 194.884 70.1442 194.599 68.8146 194.599C67.9112 194.599 67.1484 194.727 66.5263 194.982C65.9041 195.229 65.4269 195.575 65.0945 196.018C64.7706 196.461 64.6087 196.964 64.6087 197.526C64.5916 197.995 64.6896 198.404 64.9027 198.754C65.1243 199.103 65.4269 199.406 65.8104 199.661C66.1939 199.908 66.6371 200.126 67.1399 200.313C67.6428 200.492 68.1797 200.646 68.7507 200.773L71.103 201.336C72.245 201.592 73.2933 201.932 74.2479 202.359C75.2024 202.785 76.0291 203.309 76.728 203.931C77.4269 204.553 77.9681 205.286 78.3516 206.13C78.7436 206.974 78.9439 207.941 78.9524 209.032C78.9439 210.634 78.5348 212.023 77.7252 213.2C76.924 214.367 75.7649 215.275 74.2479 215.923C72.7394 216.562 70.9198 216.881 68.7891 216.881C66.6754 216.881 64.8345 216.557 63.2663 215.91C61.7067 215.262 60.4879 214.303 59.6101 213.033C58.7408 211.755 58.2848 210.174 58.2422 208.29H63.5987C63.6584 209.168 63.9098 209.901 64.353 210.489C64.8047 211.069 65.4055 211.508 66.1555 211.806C66.9141 212.096 67.7706 212.241 68.7252 212.241C69.6627 212.241 70.4766 212.104 71.1669 211.832C71.8658 211.559 72.407 211.18 72.7905 210.694C73.174 210.208 73.3658 209.65 73.3658 209.019C73.3658 208.431 73.1911 207.937 72.8416 207.536C72.5007 207.136 71.9979 206.795 71.3331 206.513C70.6769 206.232 69.8715 205.977 68.9169 205.746L66.0661 205.031C63.8587 204.494 62.1158 203.654 60.8374 202.512C59.559 201.37 58.924 199.832 58.9325 197.897C58.924 196.312 59.3459 194.927 60.1982 193.742C61.059 192.557 62.2394 191.633 63.7394 190.968C65.2394 190.303 66.9439 189.971 68.853 189.971C70.7962 189.971 72.4922 190.303 73.9411 190.968C75.3984 191.633 76.532 192.557 77.3416 193.742C78.1513 194.927 78.5689 196.299 78.5945 197.859H73.2891ZM82.5735 216.511V196.874H88.0195V216.511H82.5735ZM85.3093 194.343C84.4997 194.343 83.8051 194.075 83.2255 193.538C82.6545 192.992 82.369 192.34 82.369 191.582C82.369 190.832 82.6545 190.188 83.2255 189.651C83.8051 189.106 84.4997 188.833 85.3093 188.833C86.119 188.833 86.8093 189.106 87.3803 189.651C87.9599 190.188 88.2497 190.832 88.2497 191.582C88.2497 192.34 87.9599 192.992 87.3803 193.538C86.8093 194.075 86.119 194.343 85.3093 194.343ZM102.827 196.874V200.965H91.0014V196.874H102.827ZM93.6861 192.17H99.1321V210.477C99.1321 210.979 99.2088 211.371 99.3622 211.653C99.5156 211.925 99.7287 212.117 100.001 212.228C100.283 212.339 100.607 212.394 100.973 212.394C101.229 212.394 101.484 212.373 101.74 212.33C101.996 212.279 102.192 212.241 102.328 212.215L103.185 216.268C102.912 216.353 102.528 216.451 102.034 216.562C101.54 216.681 100.939 216.754 100.232 216.779C98.919 216.83 97.7685 216.656 96.7798 216.255C95.7997 215.854 95.0369 215.232 94.4915 214.388C93.946 213.545 93.6776 212.479 93.6861 211.192V192.17ZM115.112 216.894C113.092 216.894 111.354 216.485 109.896 215.667C108.447 214.84 107.331 213.673 106.547 212.164C105.763 210.647 105.371 208.853 105.371 206.782C105.371 204.762 105.763 202.989 106.547 201.464C107.331 199.938 108.435 198.749 109.858 197.897C111.29 197.045 112.969 196.619 114.895 196.619C116.19 196.619 117.396 196.827 118.513 197.245C119.638 197.654 120.618 198.272 121.453 199.099C122.297 199.925 122.953 200.965 123.422 202.218C123.891 203.462 124.125 204.92 124.125 206.59V208.086H107.544V204.711H118.999C118.999 203.927 118.828 203.232 118.487 202.627C118.146 202.022 117.673 201.549 117.068 201.208C116.472 200.859 115.777 200.684 114.984 200.684C114.158 200.684 113.425 200.876 112.786 201.259C112.155 201.634 111.661 202.141 111.303 202.781C110.945 203.411 110.761 204.114 110.753 204.89V208.099C110.753 209.07 110.932 209.91 111.29 210.617C111.656 211.325 112.172 211.87 112.837 212.254C113.501 212.637 114.29 212.829 115.202 212.829C115.807 212.829 116.361 212.744 116.864 212.573C117.366 212.403 117.797 212.147 118.155 211.806C118.513 211.465 118.786 211.048 118.973 210.553L124.01 210.886C123.754 212.096 123.23 213.153 122.438 214.056C121.653 214.951 120.639 215.65 119.395 216.153C118.159 216.647 116.732 216.894 115.112 216.894ZM141.649 190.329V216.511H136.113V190.329H141.649ZM151.547 205.158V216.511H146.101V196.874H151.291V200.339H151.521C151.956 199.197 152.685 198.293 153.707 197.629C154.73 196.955 155.97 196.619 157.428 196.619C158.791 196.619 159.98 196.917 160.994 197.513C162.009 198.11 162.797 198.962 163.359 200.07C163.922 201.17 164.203 202.482 164.203 204.008V216.511H158.757V204.979C158.766 203.778 158.459 202.84 157.837 202.167C157.214 201.485 156.358 201.144 155.267 201.144C154.534 201.144 153.886 201.302 153.324 201.617C152.77 201.932 152.335 202.393 152.02 202.998C151.713 203.594 151.555 204.315 151.547 205.158ZM184.833 202.474L179.848 202.781C179.762 202.354 179.579 201.971 179.298 201.63C179.017 201.281 178.646 201.004 178.186 200.799C177.734 200.586 177.193 200.479 176.562 200.479C175.718 200.479 175.007 200.658 174.427 201.016C173.848 201.366 173.558 201.834 173.558 202.423C173.558 202.891 173.745 203.288 174.12 203.611C174.495 203.935 175.139 204.195 176.051 204.391L179.605 205.107C181.514 205.499 182.937 206.13 183.875 206.999C184.812 207.869 185.281 209.011 185.281 210.425C185.281 211.712 184.902 212.842 184.143 213.813C183.393 214.785 182.362 215.543 181.049 216.089C179.745 216.626 178.241 216.894 176.537 216.894C173.937 216.894 171.866 216.353 170.324 215.271C168.789 214.18 167.89 212.697 167.626 210.822L172.983 210.54C173.145 211.333 173.537 211.938 174.159 212.356C174.781 212.765 175.578 212.969 176.549 212.969C177.504 212.969 178.271 212.786 178.851 212.42C179.439 212.045 179.737 211.563 179.745 210.975C179.737 210.481 179.528 210.076 179.119 209.761C178.71 209.437 178.079 209.19 177.227 209.019L173.826 208.342C171.909 207.958 170.481 207.293 169.544 206.347C168.615 205.401 168.15 204.195 168.15 202.729C168.15 201.468 168.491 200.381 169.173 199.469C169.863 198.557 170.831 197.854 172.075 197.36C173.328 196.866 174.794 196.619 176.473 196.619C178.953 196.619 180.904 197.143 182.328 198.191C183.76 199.239 184.595 200.667 184.833 202.474ZM199.155 196.874V200.965H187.33V196.874H199.155ZM190.014 192.17H195.46V210.477C195.46 210.979 195.537 211.371 195.69 211.653C195.844 211.925 196.057 212.117 196.33 212.228C196.611 212.339 196.935 212.394 197.301 212.394C197.557 212.394 197.813 212.373 198.068 212.33C198.324 212.279 198.52 212.241 198.656 212.215L199.513 216.268C199.24 216.353 198.857 216.451 198.362 216.562C197.868 216.681 197.267 216.754 196.56 216.779C195.247 216.83 194.097 216.656 193.108 216.255C192.128 215.854 191.365 215.232 190.82 214.388C190.274 213.545 190.006 212.479 190.014 211.192V192.17ZM202.702 216.511V196.874H208.148V216.511H202.702ZM205.438 194.343C204.629 194.343 203.934 194.075 203.354 193.538C202.783 192.992 202.498 192.34 202.498 191.582C202.498 190.832 202.783 190.188 203.354 189.651C203.934 189.106 204.629 188.833 205.438 188.833C206.248 188.833 206.938 189.106 207.509 189.651C208.089 190.188 208.379 190.832 208.379 191.582C208.379 192.34 208.089 192.992 207.509 193.538C206.938 194.075 206.248 194.343 205.438 194.343ZM222.956 196.874V200.965H211.13V196.874H222.956ZM213.815 192.17H219.261V210.477C219.261 210.979 219.338 211.371 219.491 211.653C219.645 211.925 219.858 212.117 220.13 212.228C220.412 212.339 220.735 212.394 221.102 212.394C221.358 212.394 221.613 212.373 221.869 212.33C222.125 212.279 222.321 212.241 222.457 212.215L223.314 216.268C223.041 216.353 222.657 216.451 222.163 216.562C221.669 216.681 221.068 216.754 220.36 216.779C219.048 216.83 217.897 216.656 216.909 216.255C215.929 215.854 215.166 215.232 214.62 214.388C214.075 213.545 213.806 212.479 213.815 211.192V192.17ZM239.096 208.15V196.874H244.542V216.511H239.313V212.944H239.108C238.665 214.094 237.928 215.019 236.897 215.718C235.874 216.417 234.625 216.766 233.151 216.766C231.838 216.766 230.684 216.468 229.686 215.871C228.689 215.275 227.909 214.427 227.347 213.327C226.793 212.228 226.512 210.911 226.503 209.377V196.874H231.949V208.406C231.958 209.565 232.269 210.481 232.882 211.154C233.496 211.827 234.319 212.164 235.35 212.164C236.006 212.164 236.62 212.015 237.191 211.717C237.762 211.41 238.222 210.958 238.571 210.361C238.929 209.765 239.104 209.028 239.096 208.15ZM257.77 216.894C255.759 216.894 254.028 216.468 252.58 215.616C251.139 214.755 250.031 213.562 249.256 212.036C248.489 210.511 248.105 208.755 248.105 206.769C248.105 204.758 248.493 202.994 249.268 201.477C250.053 199.951 251.165 198.762 252.605 197.91C254.045 197.049 255.759 196.619 257.744 196.619C259.457 196.619 260.957 196.93 262.244 197.552C263.531 198.174 264.55 199.048 265.3 200.173C266.05 201.298 266.463 202.619 266.54 204.136H261.401C261.256 203.156 260.872 202.367 260.25 201.771C259.636 201.165 258.831 200.863 257.834 200.863C256.99 200.863 256.253 201.093 255.622 201.553C255 202.005 254.514 202.665 254.165 203.535C253.815 204.404 253.641 205.457 253.641 206.692C253.641 207.945 253.811 209.011 254.152 209.888C254.501 210.766 254.991 211.435 255.622 211.896C256.253 212.356 256.99 212.586 257.834 212.586C258.456 212.586 259.014 212.458 259.509 212.202C260.011 211.947 260.425 211.576 260.749 211.09C261.081 210.596 261.298 210.004 261.401 209.313H266.54C266.455 210.813 266.045 212.134 265.313 213.276C264.588 214.41 263.587 215.296 262.308 215.935C261.03 216.575 259.517 216.894 257.77 216.894ZM270.027 216.511V196.874H275.473V216.511H270.027ZM272.762 194.343C271.953 194.343 271.258 194.075 270.679 193.538C270.108 192.992 269.822 192.34 269.822 191.582C269.822 190.832 270.108 190.188 270.679 189.651C271.258 189.106 271.953 188.833 272.762 188.833C273.572 188.833 274.262 189.106 274.833 189.651C275.413 190.188 275.703 190.832 275.703 191.582C275.703 192.34 275.413 192.992 274.833 193.538C274.262 194.075 273.572 194.343 272.762 194.343ZM288.707 216.894C286.722 216.894 285.004 216.472 283.555 215.629C282.115 214.776 281.003 213.592 280.219 212.075C279.435 210.549 279.043 208.781 279.043 206.769C279.043 204.741 279.435 202.968 280.219 201.451C281.003 199.925 282.115 198.741 283.555 197.897C285.004 197.045 286.722 196.619 288.707 196.619C290.693 196.619 292.406 197.045 293.847 197.897C295.295 198.741 296.412 199.925 297.196 201.451C297.98 202.968 298.372 204.741 298.372 206.769C298.372 208.781 297.98 210.549 297.196 212.075C296.412 213.592 295.295 214.776 293.847 215.629C292.406 216.472 290.693 216.894 288.707 216.894ZM288.733 212.675C289.636 212.675 290.391 212.42 290.996 211.908C291.601 211.388 292.057 210.681 292.364 209.786C292.679 208.891 292.837 207.873 292.837 206.731C292.837 205.589 292.679 204.57 292.364 203.675C292.057 202.781 291.601 202.073 290.996 201.553C290.391 201.033 289.636 200.773 288.733 200.773C287.821 200.773 287.054 201.033 286.432 201.553C285.818 202.073 285.354 202.781 285.038 203.675C284.732 204.57 284.578 205.589 284.578 206.731C284.578 207.873 284.732 208.891 285.038 209.786C285.354 210.681 285.818 211.388 286.432 211.908C287.054 212.42 287.821 212.675 288.733 212.675ZM307.359 205.158V216.511H301.913V196.874H307.104V200.339H307.334C307.768 199.197 308.497 198.293 309.52 197.629C310.543 196.955 311.783 196.619 313.24 196.619C314.604 196.619 315.793 196.917 316.807 197.513C317.821 198.11 318.609 198.962 319.172 200.07C319.734 201.17 320.016 202.482 320.016 204.008V216.511H314.57V204.979C314.578 203.778 314.271 202.84 313.649 202.167C313.027 201.485 312.17 201.144 311.08 201.144C310.347 201.144 309.699 201.302 309.136 201.617C308.582 201.932 308.148 202.393 307.832 202.998C307.526 203.594 307.368 204.315 307.359 205.158ZM329.907 216.881C328.654 216.881 327.538 216.664 326.558 216.229C325.578 215.786 324.802 215.134 324.231 214.273C323.669 213.404 323.387 212.322 323.387 211.026C323.387 209.935 323.588 209.019 323.988 208.278C324.389 207.536 324.934 206.94 325.625 206.488C326.315 206.036 327.099 205.695 327.977 205.465C328.863 205.235 329.792 205.073 330.764 204.979C331.906 204.86 332.826 204.749 333.525 204.647C334.224 204.536 334.731 204.374 335.047 204.161C335.362 203.948 335.52 203.633 335.52 203.215V203.138C335.52 202.329 335.264 201.702 334.752 201.259C334.25 200.816 333.534 200.594 332.605 200.594C331.625 200.594 330.845 200.812 330.265 201.246C329.686 201.673 329.302 202.209 329.115 202.857L324.078 202.448C324.333 201.255 324.836 200.224 325.586 199.354C326.336 198.477 327.304 197.803 328.488 197.334C329.681 196.857 331.062 196.619 332.63 196.619C333.721 196.619 334.765 196.746 335.762 197.002C336.768 197.258 337.659 197.654 338.434 198.191C339.218 198.728 339.836 199.418 340.288 200.262C340.74 201.097 340.966 202.099 340.966 203.266V216.511H335.801V213.788H335.647C335.332 214.401 334.91 214.942 334.382 215.411C333.853 215.871 333.218 216.234 332.477 216.498C331.735 216.754 330.879 216.881 329.907 216.881ZM331.467 213.123C332.268 213.123 332.976 212.965 333.589 212.65C334.203 212.326 334.684 211.891 335.034 211.346C335.383 210.8 335.558 210.182 335.558 209.492V207.408C335.387 207.519 335.153 207.621 334.855 207.715C334.565 207.8 334.237 207.881 333.87 207.958C333.504 208.026 333.137 208.09 332.771 208.15C332.404 208.201 332.072 208.248 331.774 208.29C331.135 208.384 330.576 208.533 330.099 208.738C329.622 208.942 329.251 209.219 328.987 209.569C328.723 209.91 328.591 210.336 328.591 210.847C328.591 211.589 328.859 212.156 329.396 212.548C329.941 212.931 330.632 213.123 331.467 213.123ZM350.637 190.329V216.511H345.191V190.329H350.637Z" fill="#F4F4F4"/>
<rect width="376" height="81" transform="translate(4)" fill="#5E4B4B"/>
<g filter="url(#filter1_d_17_38)">
<rect x="4" width="376" height="81" fill="url(#paint1_linear_17_38)"/>
</g>
<path d="M74.9147 53.9255V27.7437H80.4502V49.3616H91.6747V53.9255H74.9147ZM100.838 54.2963C99.5848 54.2963 98.4683 54.0789 97.4882 53.6443C96.5081 53.2011 95.7325 52.5491 95.1615 51.6883C94.599 50.819 94.3178 49.7366 94.3178 48.4412C94.3178 47.3503 94.5181 46.4341 94.9186 45.6926C95.3192 44.9511 95.8646 44.3545 96.555 43.9028C97.2453 43.4511 98.0294 43.1102 98.9073 42.8801C99.7936 42.65 100.723 42.488 101.694 42.3943C102.836 42.275 103.757 42.1642 104.456 42.0619C105.154 41.9511 105.662 41.7892 105.977 41.5761C106.292 41.363 106.45 41.0477 106.45 40.6301V40.5534C106.45 39.7437 106.194 39.1173 105.683 38.6741C105.18 38.2309 104.464 38.0093 103.535 38.0093C102.555 38.0093 101.775 38.2267 101.196 38.6613C100.616 39.0875 100.233 39.6244 100.045 40.2721L95.0081 39.863C95.2638 38.6699 95.7666 37.6386 96.5166 36.7693C97.2666 35.8914 98.234 35.2181 99.4186 34.7494C100.612 34.2721 101.992 34.0335 103.561 34.0335C104.652 34.0335 105.696 34.1613 106.693 34.417C107.698 34.6727 108.589 35.069 109.365 35.6059C110.149 36.1429 110.767 36.8332 111.218 37.677C111.67 38.5122 111.896 39.5136 111.896 40.6812V53.9255H106.731V51.2025H106.578C106.262 51.8162 105.84 52.3574 105.312 52.8261C104.784 53.2863 104.149 53.6485 103.407 53.9128C102.666 54.1684 101.809 54.2963 100.838 54.2963ZM102.397 50.5378C103.198 50.5378 103.906 50.3801 104.519 50.0647C105.133 49.7409 105.615 49.3062 105.964 48.7608C106.314 48.2153 106.488 47.5974 106.488 46.9071V44.8233C106.318 44.9341 106.083 45.0363 105.785 45.1301C105.495 45.2153 105.167 45.2963 104.801 45.373C104.434 45.4412 104.068 45.5051 103.701 45.5647C103.335 45.6159 103.002 45.6628 102.704 45.7054C102.065 45.7991 101.507 45.9483 101.029 46.1528C100.552 46.3574 100.181 46.6343 99.9172 46.9838C99.653 47.3247 99.5209 47.7508 99.5209 48.2622C99.5209 49.0037 99.7894 49.5704 100.326 49.9625C100.872 50.346 101.562 50.5378 102.397 50.5378ZM121.567 42.5733V53.9255H116.121V34.2892H121.311V37.7537H121.541C121.976 36.6116 122.705 35.7082 123.728 35.0434C124.75 34.3701 125.99 34.0335 127.448 34.0335C128.811 34.0335 130 34.3318 131.015 34.9284C132.029 35.525 132.817 36.3772 133.38 37.4852C133.942 38.5846 134.223 39.8971 134.223 41.4227V53.9255H128.777V42.3943C128.786 41.1926 128.479 40.2551 127.857 39.5818C127.235 38.9 126.378 38.5591 125.287 38.5591C124.554 38.5591 123.907 38.7167 123.344 39.0321C122.79 39.3474 122.355 39.8076 122.04 40.4128C121.733 41.0093 121.576 41.7295 121.567 42.5733ZM145.751 54.2451C144.26 54.2451 142.909 53.8616 141.699 53.0946C140.497 52.319 139.543 51.1812 138.835 49.6812C138.136 48.1727 137.787 46.3233 137.787 44.1329C137.787 41.8829 138.149 40.0122 138.874 38.5207C139.598 37.0207 140.561 35.9 141.763 35.1585C142.973 34.4085 144.298 34.0335 145.739 34.0335C146.838 34.0335 147.754 34.221 148.487 34.596C149.229 34.9625 149.825 35.4227 150.277 35.9767C150.737 36.5221 151.087 37.0591 151.325 37.5875H151.491V27.7437H156.925V53.9255H151.555V50.7807H151.325C151.07 51.3261 150.707 51.8673 150.239 52.4042C149.778 52.9326 149.177 53.3716 148.436 53.721C147.703 54.0704 146.808 54.2451 145.751 54.2451ZM147.477 49.9113C148.355 49.9113 149.097 49.6727 149.702 49.1954C150.315 48.7096 150.784 48.0321 151.108 47.1628C151.44 46.2934 151.606 45.275 151.606 44.1074C151.606 42.9397 151.445 41.9255 151.121 41.0647C150.797 40.2039 150.328 39.5392 149.714 39.0704C149.101 38.6017 148.355 38.3673 147.477 38.3673C146.582 38.3673 145.828 38.6102 145.214 39.096C144.601 39.5818 144.136 40.2551 143.821 41.1159C143.506 41.9767 143.348 42.9738 143.348 44.1074C143.348 45.2494 143.506 46.2593 143.821 47.1372C144.145 48.0065 144.609 48.6883 145.214 49.1826C145.828 49.6684 146.582 49.9113 147.477 49.9113ZM161.402 53.9255V34.2892H166.848V53.9255H161.402ZM164.138 31.7579C163.328 31.7579 162.634 31.4895 162.054 30.9525C161.483 30.4071 161.198 29.7551 161.198 28.9966C161.198 28.2466 161.483 27.6031 162.054 27.0662C162.634 26.5207 163.328 26.248 164.138 26.248C164.948 26.248 165.638 26.5207 166.209 27.0662C166.789 27.6031 167.078 28.2466 167.078 28.9966C167.078 29.7551 166.789 30.4071 166.209 30.9525C165.638 31.4895 164.948 31.7579 164.138 31.7579ZM176.657 42.5733V53.9255H171.211V34.2892H176.401V37.7537H176.631C177.066 36.6116 177.795 35.7082 178.817 35.0434C179.84 34.3701 181.08 34.0335 182.538 34.0335C183.901 34.0335 185.09 34.3318 186.104 34.9284C187.119 35.525 187.907 36.3772 188.469 37.4852C189.032 38.5846 189.313 39.8971 189.313 41.4227V53.9255H183.867V42.3943C183.876 41.1926 183.569 40.2551 182.947 39.5818C182.325 38.9 181.468 38.5591 180.377 38.5591C179.644 38.5591 178.996 38.7167 178.434 39.0321C177.88 39.3474 177.445 39.8076 177.13 40.4128C176.823 41.0093 176.665 41.7295 176.657 42.5733ZM202.452 61.6983C200.688 61.6983 199.175 61.4554 197.914 60.9696C196.661 60.4923 195.664 59.8403 194.922 59.0136C194.181 58.1869 193.699 57.2579 193.478 56.2267L198.514 55.5491C198.668 55.9412 198.911 56.3076 199.243 56.6485C199.576 56.9895 200.015 57.2622 200.56 57.4667C201.114 57.6798 201.787 57.7863 202.58 57.7863C203.765 57.7863 204.74 57.4966 205.507 56.917C206.283 56.346 206.671 55.3872 206.671 54.0406V50.4483H206.441C206.202 50.9937 205.844 51.5093 205.367 51.9951C204.89 52.4809 204.276 52.8772 203.526 53.1841C202.776 53.4909 201.881 53.6443 200.841 53.6443C199.367 53.6443 198.024 53.3034 196.814 52.6216C195.613 51.9312 194.654 50.8787 193.938 49.4639C193.23 48.0406 192.877 46.2423 192.877 44.069C192.877 41.8446 193.239 39.9866 193.963 38.4951C194.688 37.0037 195.651 35.8872 196.853 35.1457C198.063 34.4042 199.388 34.0335 200.828 34.0335C201.928 34.0335 202.848 34.221 203.59 34.596C204.331 34.9625 204.928 35.4227 205.38 35.9767C205.84 36.5221 206.193 37.0591 206.441 37.5875H206.645V34.2892H212.053V54.1173C212.053 55.7878 211.644 57.1855 210.826 58.3105C210.007 59.4355 208.874 60.2792 207.425 60.8417C205.985 61.4128 204.327 61.6983 202.452 61.6983ZM202.567 49.5534C203.445 49.5534 204.186 49.336 204.791 48.9014C205.405 48.4582 205.874 47.8275 206.198 47.0093C206.53 46.1826 206.696 45.194 206.696 44.0434C206.696 42.8929 206.534 41.8957 206.211 41.052C205.887 40.1997 205.418 39.5392 204.804 39.0704C204.191 38.6017 203.445 38.3673 202.567 38.3673C201.672 38.3673 200.918 38.6102 200.304 39.096C199.691 39.5733 199.226 40.238 198.911 41.0903C198.595 41.9426 198.438 42.927 198.438 44.0434C198.438 45.177 198.595 46.1571 198.911 46.9838C199.235 47.802 199.699 48.4369 200.304 48.8886C200.918 49.3318 201.672 49.5534 202.567 49.5534ZM224.821 53.9255V27.7437H235.151C237.136 27.7437 238.828 28.123 240.226 28.8815C241.624 29.6315 242.689 30.6755 243.422 32.0136C244.163 33.3431 244.534 34.8772 244.534 36.6159C244.534 38.3545 244.159 39.8886 243.409 41.2182C242.659 42.5477 241.572 43.5832 240.149 44.3247C238.734 45.0662 237.021 45.4369 235.01 45.4369H228.426V41.0008H234.115C235.18 41.0008 236.058 40.8176 236.749 40.4511C237.447 40.0761 237.967 39.5605 238.308 38.9042C238.658 38.2395 238.832 37.4767 238.832 36.6159C238.832 35.7466 238.658 34.988 238.308 34.3403C237.967 33.6841 237.447 33.177 236.749 32.819C236.05 32.4525 235.163 32.2693 234.089 32.2693H230.356V53.9255H224.821ZM253.099 54.2963C251.847 54.2963 250.73 54.0789 249.75 53.6443C248.77 53.2011 247.994 52.5491 247.423 51.6883C246.861 50.819 246.579 49.7366 246.579 48.4412C246.579 47.3503 246.78 46.4341 247.18 45.6926C247.581 44.9511 248.126 44.3545 248.817 43.9028C249.507 43.4511 250.291 43.1102 251.169 42.8801C252.055 42.65 252.984 42.488 253.956 42.3943C255.098 42.275 256.018 42.1642 256.717 42.0619C257.416 41.9511 257.923 41.7892 258.239 41.5761C258.554 41.363 258.712 41.0477 258.712 40.6301V40.5534C258.712 39.7437 258.456 39.1173 257.945 38.6741C257.442 38.2309 256.726 38.0093 255.797 38.0093C254.817 38.0093 254.037 38.2267 253.457 38.6613C252.878 39.0875 252.494 39.6244 252.307 40.2721L247.27 39.863C247.526 38.6699 248.028 37.6386 248.778 36.7693C249.528 35.8914 250.496 35.2181 251.68 34.7494C252.874 34.2721 254.254 34.0335 255.822 34.0335C256.913 34.0335 257.957 34.1613 258.954 34.417C259.96 34.6727 260.851 35.069 261.626 35.6059C262.41 36.1429 263.028 36.8332 263.48 37.677C263.932 38.5122 264.158 39.5136 264.158 40.6812V53.9255H258.993V51.2025H258.839C258.524 51.8162 258.102 52.3574 257.574 52.8261C257.045 53.2863 256.41 53.6485 255.669 53.9128C254.927 54.1684 254.071 54.2963 253.099 54.2963ZM254.659 50.5378C255.46 50.5378 256.168 50.3801 256.781 50.0647C257.395 49.7409 257.876 49.3062 258.226 48.7608C258.575 48.2153 258.75 47.5974 258.75 46.9071V44.8233C258.579 44.9341 258.345 45.0363 258.047 45.1301C257.757 45.2153 257.429 45.2963 257.062 45.373C256.696 45.4412 256.329 45.5051 255.963 45.5647C255.597 45.6159 255.264 45.6628 254.966 45.7054C254.327 45.7991 253.768 45.9483 253.291 46.1528C252.814 46.3574 252.443 46.6343 252.179 46.9838C251.915 47.3247 251.783 47.7508 251.783 48.2622C251.783 49.0037 252.051 49.5704 252.588 49.9625C253.133 50.346 253.824 50.5378 254.659 50.5378ZM277.229 61.6983C275.465 61.6983 273.952 61.4554 272.691 60.9696C271.438 60.4923 270.441 59.8403 269.7 59.0136C268.958 58.1869 268.477 57.2579 268.255 56.2267L273.292 55.5491C273.445 55.9412 273.688 56.3076 274.021 56.6485C274.353 56.9895 274.792 57.2622 275.337 57.4667C275.891 57.6798 276.565 57.7863 277.357 57.7863C278.542 57.7863 279.518 57.4966 280.285 56.917C281.06 56.346 281.448 55.3872 281.448 54.0406V50.4483H281.218C280.979 50.9937 280.621 51.5093 280.144 51.9951C279.667 52.4809 279.053 52.8772 278.303 53.1841C277.553 53.4909 276.658 53.6443 275.619 53.6443C274.144 53.6443 272.802 53.3034 271.592 52.6216C270.39 51.9312 269.431 50.8787 268.715 49.4639C268.008 48.0406 267.654 46.2423 267.654 44.069C267.654 41.8446 268.016 39.9866 268.741 38.4951C269.465 37.0037 270.428 35.8872 271.63 35.1457C272.84 34.4042 274.165 34.0335 275.606 34.0335C276.705 34.0335 277.626 34.221 278.367 34.596C279.109 34.9625 279.705 35.4227 280.157 35.9767C280.617 36.5221 280.971 37.0591 281.218 37.5875H281.423V34.2892H286.83V54.1173C286.83 55.7878 286.421 57.1855 285.603 58.3105C284.785 59.4355 283.651 60.2792 282.202 60.8417C280.762 61.4128 279.104 61.6983 277.229 61.6983ZM277.344 49.5534C278.222 49.5534 278.964 49.336 279.569 48.9014C280.182 48.4582 280.651 47.8275 280.975 47.0093C281.307 46.1826 281.474 45.194 281.474 44.0434C281.474 42.8929 281.312 41.8957 280.988 41.052C280.664 40.1997 280.195 39.5392 279.582 39.0704C278.968 38.6017 278.222 38.3673 277.344 38.3673C276.45 38.3673 275.695 38.6102 275.082 39.096C274.468 39.5733 274.003 40.238 273.688 41.0903C273.373 41.9426 273.215 42.927 273.215 44.0434C273.215 45.177 273.373 46.1571 273.688 46.9838C274.012 47.802 274.477 48.4369 275.082 48.8886C275.695 49.3318 276.45 49.5534 277.344 49.5534ZM300.113 54.3091C298.093 54.3091 296.354 53.9 294.897 53.0818C293.448 52.2551 292.332 51.0875 291.548 49.5789C290.763 48.0619 290.371 46.2679 290.371 44.1968C290.371 42.177 290.763 40.4042 291.548 38.8787C292.332 37.3531 293.435 36.1642 294.859 35.3119C296.29 34.4596 297.969 34.0335 299.896 34.0335C301.191 34.0335 302.397 34.2423 303.513 34.6599C304.638 35.069 305.619 35.6869 306.454 36.5136C307.298 37.3403 307.954 38.3801 308.423 39.6329C308.891 40.8772 309.126 42.3346 309.126 44.0051V45.5008H292.545V42.1258H303.999C303.999 41.3417 303.829 40.6471 303.488 40.042C303.147 39.4369 302.674 38.9639 302.069 38.623C301.472 38.2735 300.778 38.0988 299.985 38.0988C299.158 38.0988 298.425 38.2906 297.786 38.6741C297.155 39.0491 296.661 39.5562 296.303 40.1954C295.945 40.8261 295.762 41.5292 295.753 42.3048V45.5136C295.753 46.4852 295.932 47.3247 296.29 48.0321C296.657 48.7395 297.173 49.2849 297.837 49.6684C298.502 50.052 299.29 50.2437 300.202 50.2437C300.807 50.2437 301.361 50.1585 301.864 49.988C302.367 49.8176 302.798 49.5619 303.155 49.221C303.513 48.8801 303.786 48.4625 303.974 47.9682L309.011 48.3005C308.755 49.5108 308.231 50.5676 307.438 51.471C306.654 52.3659 305.64 53.0647 304.396 53.5676C303.16 54.0619 301.732 54.3091 300.113 54.3091Z" fill="#F4F4F4"/>
<g filter="url(#filter2_d_17_38)">
<rect x="85" y="81" width="376" height="82" fill="url(#paint2_linear_17_38)"/>
</g>
<path d="M129.914 134.83H123.983L133.021 108.648H140.155L149.18 134.83H143.248L136.69 114.631H136.486L129.914 134.83ZM129.544 124.539H143.555V128.86H129.544V124.539ZM157.675 123.478V134.83H152.229V115.193H157.419V118.658H157.65C158.084 117.516 158.813 116.612 159.836 115.948C160.858 115.274 162.098 114.938 163.556 114.938C164.919 114.938 166.108 115.236 167.123 115.833C168.137 116.429 168.925 117.281 169.488 118.389C170.05 119.489 170.331 120.801 170.331 122.327V134.83H164.885V123.299C164.894 122.097 164.587 121.159 163.965 120.486C163.343 119.804 162.486 119.463 161.395 119.463C160.662 119.463 160.015 119.621 159.452 119.936C158.898 120.252 158.464 120.712 158.148 121.317C157.841 121.914 157.684 122.634 157.675 123.478ZM180.223 135.201C178.97 135.201 177.854 134.983 176.874 134.549C175.894 134.105 175.118 133.453 174.547 132.593C173.984 131.723 173.703 130.641 173.703 129.345C173.703 128.254 173.903 127.338 174.304 126.597C174.705 125.855 175.25 125.259 175.94 124.807C176.631 124.355 177.415 124.014 178.293 123.784C179.179 123.554 180.108 123.392 181.08 123.299C182.222 123.179 183.142 123.068 183.841 122.966C184.54 122.855 185.047 122.693 185.362 122.48C185.678 122.267 185.835 121.952 185.835 121.534V121.458C185.835 120.648 185.58 120.022 185.068 119.578C184.565 119.135 183.85 118.914 182.921 118.914C181.94 118.914 181.161 119.131 180.581 119.566C180.001 119.992 179.618 120.529 179.43 121.176L174.394 120.767C174.649 119.574 175.152 118.543 175.902 117.674C176.652 116.796 177.619 116.122 178.804 115.654C179.997 115.176 181.378 114.938 182.946 114.938C184.037 114.938 185.081 115.066 186.078 115.321C187.084 115.577 187.975 115.973 188.75 116.51C189.534 117.047 190.152 117.737 190.604 118.581C191.055 119.416 191.281 120.418 191.281 121.585V134.83H186.117V132.107H185.963C185.648 132.72 185.226 133.262 184.698 133.73C184.169 134.191 183.534 134.553 182.793 134.817C182.051 135.073 181.195 135.201 180.223 135.201ZM181.783 131.442C182.584 131.442 183.291 131.284 183.905 130.969C184.519 130.645 185 130.21 185.35 129.665C185.699 129.12 185.874 128.502 185.874 127.811V125.728C185.703 125.838 185.469 125.941 185.171 126.034C184.881 126.12 184.553 126.201 184.186 126.277C183.82 126.345 183.453 126.409 183.087 126.469C182.72 126.52 182.388 126.567 182.09 126.61C181.45 126.703 180.892 126.852 180.415 127.057C179.938 127.262 179.567 127.539 179.303 127.888C179.038 128.229 178.906 128.655 178.906 129.166C178.906 129.908 179.175 130.475 179.712 130.867C180.257 131.25 180.948 131.442 181.783 131.442ZM200.952 108.648V134.83H195.506V108.648H200.952ZM205.315 134.83V115.193H210.761V134.83H205.315ZM208.051 112.662C207.241 112.662 206.547 112.394 205.967 111.857C205.396 111.311 205.111 110.659 205.111 109.901C205.111 109.151 205.396 108.507 205.967 107.97C206.547 107.425 207.241 107.152 208.051 107.152C208.861 107.152 209.551 107.425 210.122 107.97C210.701 108.507 210.991 109.151 210.991 109.901C210.991 110.659 210.701 111.311 210.122 111.857C209.551 112.394 208.861 112.662 208.051 112.662ZM231.462 120.793L226.476 121.1C226.391 120.674 226.207 120.29 225.926 119.949C225.645 119.6 225.274 119.323 224.814 119.118C224.362 118.905 223.821 118.799 223.19 118.799C222.347 118.799 221.635 118.977 221.055 119.335C220.476 119.685 220.186 120.154 220.186 120.742C220.186 121.21 220.374 121.607 220.749 121.931C221.124 122.254 221.767 122.514 222.679 122.71L226.233 123.426C228.142 123.818 229.565 124.449 230.503 125.318C231.44 126.188 231.909 127.33 231.909 128.745C231.909 130.031 231.53 131.161 230.771 132.132C230.021 133.104 228.99 133.862 227.678 134.408C226.374 134.945 224.869 135.213 223.165 135.213C220.565 135.213 218.494 134.672 216.952 133.59C215.418 132.499 214.519 131.016 214.254 129.141L219.611 128.86C219.773 129.652 220.165 130.257 220.787 130.675C221.409 131.084 222.206 131.289 223.178 131.289C224.132 131.289 224.899 131.105 225.479 130.739C226.067 130.364 226.365 129.882 226.374 129.294C226.365 128.8 226.156 128.395 225.747 128.08C225.338 127.756 224.707 127.509 223.855 127.338L220.455 126.661C218.537 126.277 217.109 125.612 216.172 124.666C215.243 123.72 214.778 122.514 214.778 121.049C214.778 119.787 215.119 118.701 215.801 117.789C216.492 116.877 217.459 116.174 218.703 115.679C219.956 115.185 221.422 114.938 223.101 114.938C225.581 114.938 227.533 115.462 228.956 116.51C230.388 117.558 231.223 118.986 231.462 120.793ZM244.287 135.213C242.267 135.213 240.529 134.804 239.071 133.986C237.623 133.159 236.506 131.992 235.722 130.483C234.938 128.966 234.546 127.172 234.546 125.101C234.546 123.081 234.938 121.308 235.722 119.783C236.506 118.257 237.61 117.068 239.033 116.216C240.465 115.364 242.144 114.938 244.07 114.938C245.365 114.938 246.571 115.147 247.688 115.564C248.813 115.973 249.793 116.591 250.628 117.418C251.472 118.245 252.128 119.284 252.597 120.537C253.066 121.781 253.3 123.239 253.3 124.909V126.405H236.719V123.03H248.174C248.174 122.246 248.003 121.551 247.662 120.946C247.321 120.341 246.848 119.868 246.243 119.527C245.647 119.178 244.952 119.003 244.16 119.003C243.333 119.003 242.6 119.195 241.961 119.578C241.33 119.953 240.836 120.46 240.478 121.1C240.12 121.73 239.937 122.433 239.928 123.209V126.418C239.928 127.389 240.107 128.229 240.465 128.936C240.831 129.644 241.347 130.189 242.012 130.573C242.677 130.956 243.465 131.148 244.377 131.148C244.982 131.148 245.536 131.063 246.039 130.892C246.542 130.722 246.972 130.466 247.33 130.125C247.688 129.784 247.961 129.367 248.148 128.872L253.185 129.205C252.929 130.415 252.405 131.472 251.613 132.375C250.829 133.27 249.814 133.969 248.57 134.472C247.334 134.966 245.907 135.213 244.287 135.213ZM272.422 135.149C270.93 135.149 269.58 134.766 268.369 133.999C267.168 133.223 266.213 132.085 265.506 130.585C264.807 129.077 264.457 127.227 264.457 125.037C264.457 122.787 264.82 120.916 265.544 119.425C266.269 117.925 267.232 116.804 268.433 116.063C269.644 115.313 270.969 114.938 272.409 114.938C273.509 114.938 274.425 115.125 275.158 115.5C275.899 115.867 276.496 116.327 276.948 116.881C277.408 117.426 277.757 117.963 277.996 118.492H278.162V108.648H283.595V134.83H278.226V131.685H277.996C277.74 132.23 277.378 132.772 276.909 133.308C276.449 133.837 275.848 134.276 275.107 134.625C274.374 134.975 273.479 135.149 272.422 135.149ZM274.148 130.816C275.026 130.816 275.767 130.577 276.372 130.1C276.986 129.614 277.455 128.936 277.778 128.067C278.111 127.198 278.277 126.179 278.277 125.012C278.277 123.844 278.115 122.83 277.791 121.969C277.467 121.108 276.999 120.443 276.385 119.975C275.771 119.506 275.026 119.272 274.148 119.272C273.253 119.272 272.499 119.514 271.885 120C271.271 120.486 270.807 121.159 270.492 122.02C270.176 122.881 270.019 123.878 270.019 125.012C270.019 126.154 270.176 127.164 270.492 128.041C270.815 128.911 271.28 129.593 271.885 130.087C272.499 130.573 273.253 130.816 274.148 130.816ZM297.022 135.213C295.002 135.213 293.263 134.804 291.806 133.986C290.357 133.159 289.24 131.992 288.456 130.483C287.672 128.966 287.28 127.172 287.28 125.101C287.28 123.081 287.672 121.308 288.456 119.783C289.24 118.257 290.344 117.068 291.767 116.216C293.199 115.364 294.878 114.938 296.804 114.938C298.1 114.938 299.306 115.147 300.422 115.564C301.547 115.973 302.527 116.591 303.363 117.418C304.206 118.245 304.863 119.284 305.331 120.537C305.8 121.781 306.035 123.239 306.035 124.909V126.405H289.454V123.03H300.908C300.908 122.246 300.738 121.551 300.397 120.946C300.056 120.341 299.583 119.868 298.978 119.527C298.381 119.178 297.687 119.003 296.894 119.003C296.067 119.003 295.334 119.195 294.695 119.578C294.064 119.953 293.57 120.46 293.212 121.1C292.854 121.73 292.671 122.433 292.662 123.209V126.418C292.662 127.389 292.841 128.229 293.199 128.936C293.566 129.644 294.081 130.189 294.746 130.573C295.411 130.956 296.199 131.148 297.111 131.148C297.716 131.148 298.27 131.063 298.773 130.892C299.276 130.722 299.706 130.466 300.064 130.125C300.422 129.784 300.695 129.367 300.883 128.872L305.919 129.205C305.664 130.415 305.14 131.472 304.347 132.375C303.563 133.27 302.549 133.969 301.304 134.472C300.069 134.966 298.641 135.213 297.022 135.213ZM327.304 134.83H318.023V108.648H327.381C330.014 108.648 332.281 109.172 334.182 110.22C336.082 111.26 337.544 112.756 338.567 114.708C339.598 116.659 340.114 118.995 340.114 121.713C340.114 124.441 339.598 126.784 338.567 128.745C337.544 130.705 336.074 132.209 334.156 133.257C332.247 134.306 329.963 134.83 327.304 134.83ZM323.558 130.087H327.074C328.71 130.087 330.087 129.797 331.203 129.218C332.328 128.629 333.172 127.722 333.734 126.495C334.305 125.259 334.591 123.665 334.591 121.713C334.591 119.779 334.305 118.198 333.734 116.97C333.172 115.743 332.332 114.84 331.216 114.26C330.1 113.681 328.723 113.391 327.087 113.391H323.558V130.087ZM349.711 135.201C348.459 135.201 347.342 134.983 346.362 134.549C345.382 134.105 344.606 133.453 344.035 132.593C343.473 131.723 343.191 130.641 343.191 129.345C343.191 128.254 343.392 127.338 343.792 126.597C344.193 125.855 344.738 125.259 345.429 124.807C346.119 124.355 346.903 124.014 347.781 123.784C348.667 123.554 349.596 123.392 350.568 123.299C351.71 123.179 352.63 123.068 353.329 122.966C354.028 122.855 354.535 122.693 354.851 122.48C355.166 122.267 355.324 121.952 355.324 121.534V121.458C355.324 120.648 355.068 120.022 354.557 119.578C354.054 119.135 353.338 118.914 352.409 118.914C351.429 118.914 350.649 119.131 350.069 119.566C349.49 119.992 349.106 120.529 348.919 121.176L343.882 120.767C344.138 119.574 344.64 118.543 345.39 117.674C346.14 116.796 347.108 116.122 348.292 115.654C349.486 115.176 350.866 114.938 352.434 114.938C353.525 114.938 354.569 115.066 355.566 115.321C356.572 115.577 357.463 115.973 358.238 116.51C359.022 117.047 359.64 117.737 360.092 118.581C360.544 119.416 360.77 120.418 360.77 121.585V134.83H355.605V132.107H355.451C355.136 132.72 354.714 133.262 354.186 133.73C353.657 134.191 353.022 134.553 352.281 134.817C351.539 135.073 350.683 135.201 349.711 135.201ZM351.271 131.442C352.072 131.442 352.78 131.284 353.393 130.969C354.007 130.645 354.488 130.21 354.838 129.665C355.187 129.12 355.362 128.502 355.362 127.811V125.728C355.191 125.838 354.957 125.941 354.659 126.034C354.369 126.12 354.041 126.201 353.674 126.277C353.308 126.345 352.941 126.409 352.575 126.469C352.209 126.52 351.876 126.567 351.578 126.61C350.939 126.703 350.38 126.852 349.903 127.057C349.426 127.262 349.055 127.539 348.791 127.888C348.527 128.229 348.395 128.655 348.395 129.166C348.395 129.908 348.663 130.475 349.2 130.867C349.745 131.25 350.436 131.442 351.271 131.442ZM372.231 135.149C370.739 135.149 369.388 134.766 368.178 133.999C366.976 133.223 366.022 132.085 365.314 130.585C364.615 129.077 364.266 127.227 364.266 125.037C364.266 122.787 364.628 120.916 365.353 119.425C366.077 117.925 367.04 116.804 368.242 116.063C369.452 115.313 370.777 114.938 372.218 114.938C373.317 114.938 374.233 115.125 374.966 115.5C375.708 115.867 376.304 116.327 376.756 116.881C377.216 117.426 377.566 117.963 377.804 118.492H377.971V108.648H383.404V134.83H378.035V131.685H377.804C377.549 132.23 377.187 132.772 376.718 133.308C376.258 133.837 375.657 134.276 374.915 134.625C374.182 134.975 373.287 135.149 372.231 135.149ZM373.956 130.816C374.834 130.816 375.576 130.577 376.181 130.1C376.794 129.614 377.263 128.936 377.587 128.067C377.919 127.198 378.086 126.179 378.086 125.012C378.086 123.844 377.924 122.83 377.6 121.969C377.276 121.108 376.807 120.443 376.194 119.975C375.58 119.506 374.834 119.272 373.956 119.272C373.062 119.272 372.307 119.514 371.694 120C371.08 120.486 370.615 121.159 370.3 122.02C369.985 122.881 369.827 123.878 369.827 125.012C369.827 126.154 369.985 127.164 370.3 128.041C370.624 128.911 371.089 129.593 371.694 130.087C372.307 130.573 373.062 130.816 373.956 130.816ZM396.754 135.213C394.768 135.213 393.051 134.791 391.602 133.948C390.161 133.095 389.049 131.911 388.265 130.394C387.481 128.868 387.089 127.1 387.089 125.088C387.089 123.06 387.481 121.287 388.265 119.77C389.049 118.245 390.161 117.06 391.602 116.216C393.051 115.364 394.768 114.938 396.754 114.938C398.739 114.938 400.452 115.364 401.893 116.216C403.342 117.06 404.458 118.245 405.242 119.77C406.026 121.287 406.418 123.06 406.418 125.088C406.418 127.1 406.026 128.868 405.242 130.394C404.458 131.911 403.342 133.095 401.893 133.948C400.452 134.791 398.739 135.213 396.754 135.213ZM396.779 130.995C397.683 130.995 398.437 130.739 399.042 130.228C399.647 129.708 400.103 129 400.41 128.105C400.725 127.21 400.883 126.192 400.883 125.05C400.883 123.908 400.725 122.889 400.41 121.995C400.103 121.1 399.647 120.392 399.042 119.872C398.437 119.352 397.683 119.093 396.779 119.093C395.867 119.093 395.1 119.352 394.478 119.872C393.864 120.392 393.4 121.1 393.085 121.995C392.778 122.889 392.624 123.908 392.624 125.05C392.624 126.192 392.778 127.21 393.085 128.105C393.4 129 393.864 129.708 394.478 130.228C395.1 130.739 395.867 130.995 396.779 130.995ZM426.298 120.793L421.312 121.1C421.227 120.674 421.043 120.29 420.762 119.949C420.481 119.6 420.11 119.323 419.65 119.118C419.198 118.905 418.657 118.799 418.026 118.799C417.183 118.799 416.471 118.977 415.891 119.335C415.312 119.685 415.022 120.154 415.022 120.742C415.022 121.21 415.21 121.607 415.585 121.931C415.96 122.254 416.603 122.514 417.515 122.71L421.069 123.426C422.978 123.818 424.401 124.449 425.339 125.318C426.276 126.188 426.745 127.33 426.745 128.745C426.745 130.031 426.366 131.161 425.607 132.132C424.857 133.104 423.826 133.862 422.514 134.408C421.21 134.945 419.705 135.213 418.001 135.213C415.401 135.213 413.33 134.672 411.788 133.59C410.254 132.499 409.354 131.016 409.09 129.141L414.447 128.86C414.609 129.652 415.001 130.257 415.623 130.675C416.245 131.084 417.042 131.289 418.014 131.289C418.968 131.289 419.735 131.105 420.315 130.739C420.903 130.364 421.201 129.882 421.21 129.294C421.201 128.8 420.992 128.395 420.583 128.08C420.174 127.756 419.543 127.509 418.691 127.338L415.291 126.661C413.373 126.277 411.945 125.612 411.008 124.666C410.079 123.72 409.614 122.514 409.614 121.049C409.614 119.787 409.955 118.701 410.637 117.789C411.327 116.877 412.295 116.174 413.539 115.679C414.792 115.185 416.258 114.938 417.937 114.938C420.417 114.938 422.369 115.462 423.792 116.51C425.224 117.558 426.059 118.986 426.298 120.793Z" fill="#F4F4F4"/>
<g filter="url(#filter3_d_17_38)">
<rect x="85" y="244" width="376" height="81" fill="url(#paint3_linear_17_38)"/>
</g>
<path d="M143.408 282.772H137.808C137.706 282.047 137.497 281.404 137.182 280.841C136.866 280.27 136.462 279.784 135.967 279.384C135.473 278.983 134.902 278.676 134.254 278.463C133.615 278.25 132.92 278.144 132.17 278.144C130.815 278.144 129.635 278.48 128.629 279.154C127.624 279.818 126.844 280.79 126.29 282.068C125.736 283.338 125.459 284.881 125.459 286.696C125.459 288.563 125.736 290.131 126.29 291.401C126.852 292.671 127.636 293.63 128.642 294.277C129.648 294.925 130.811 295.249 132.132 295.249C132.874 295.249 133.56 295.151 134.19 294.955C134.83 294.759 135.396 294.473 135.891 294.098C136.385 293.715 136.794 293.25 137.118 292.705C137.45 292.159 137.68 291.537 137.808 290.838L143.408 290.864C143.263 292.066 142.901 293.225 142.321 294.341C141.75 295.449 140.979 296.442 140.007 297.32C139.044 298.189 137.893 298.88 136.555 299.391C135.226 299.894 133.722 300.145 132.043 300.145C129.707 300.145 127.619 299.617 125.778 298.56C123.946 297.503 122.497 295.973 121.432 293.97C120.375 291.968 119.847 289.543 119.847 286.696C119.847 283.841 120.384 281.412 121.457 279.409C122.531 277.407 123.989 275.881 125.83 274.833C127.67 273.776 129.741 273.247 132.043 273.247C133.56 273.247 134.966 273.461 136.261 273.887C137.565 274.313 138.72 274.935 139.726 275.753C140.732 276.563 141.55 277.556 142.18 278.732C142.82 279.908 143.229 281.255 143.408 282.772ZM156.147 300.171C154.161 300.171 152.444 299.749 150.995 298.905C149.555 298.053 148.442 296.868 147.658 295.351C146.874 293.826 146.482 292.057 146.482 290.046C146.482 288.017 146.874 286.245 147.658 284.728C148.442 283.202 149.555 282.017 150.995 281.174C152.444 280.321 154.161 279.895 156.147 279.895C158.133 279.895 159.846 280.321 161.286 281.174C162.735 282.017 163.852 283.202 164.636 284.728C165.42 286.245 165.812 288.017 165.812 290.046C165.812 292.057 165.42 293.826 164.636 295.351C163.852 296.868 162.735 298.053 161.286 298.905C159.846 299.749 158.133 300.171 156.147 300.171ZM156.173 295.952C157.076 295.952 157.83 295.696 158.435 295.185C159.04 294.665 159.496 293.958 159.803 293.063C160.119 292.168 160.276 291.149 160.276 290.007C160.276 288.865 160.119 287.847 159.803 286.952C159.496 286.057 159.04 285.35 158.435 284.83C157.83 284.31 157.076 284.05 156.173 284.05C155.261 284.05 154.494 284.31 153.871 284.83C153.258 285.35 152.793 286.057 152.478 286.952C152.171 287.847 152.018 288.865 152.018 290.007C152.018 291.149 152.171 292.168 152.478 293.063C152.793 293.958 153.258 294.665 153.871 295.185C154.494 295.696 155.261 295.952 156.173 295.952ZM174.799 288.435V299.787H169.353V280.151H174.543V283.615H174.773C175.208 282.473 175.937 281.57 176.96 280.905C177.982 280.232 179.222 279.895 180.68 279.895C182.043 279.895 183.232 280.193 184.246 280.79C185.261 281.387 186.049 282.239 186.612 283.347C187.174 284.446 187.455 285.759 187.455 287.284V299.787H182.009V288.256C182.018 287.054 181.711 286.117 181.089 285.443C180.467 284.762 179.61 284.421 178.519 284.421C177.786 284.421 177.138 284.578 176.576 284.894C176.022 285.209 175.587 285.669 175.272 286.274C174.965 286.871 174.808 287.591 174.799 288.435ZM208.086 285.75L203.1 286.057C203.015 285.631 202.831 285.247 202.55 284.907C202.269 284.557 201.898 284.28 201.438 284.076C200.986 283.863 200.445 283.756 199.814 283.756C198.971 283.756 198.259 283.935 197.679 284.293C197.1 284.642 196.81 285.111 196.81 285.699C196.81 286.168 196.998 286.564 197.373 286.888C197.748 287.212 198.391 287.472 199.303 287.668L202.857 288.384C204.766 288.776 206.189 289.407 207.127 290.276C208.064 291.145 208.533 292.287 208.533 293.702C208.533 294.989 208.154 296.118 207.395 297.09C206.645 298.061 205.614 298.82 204.301 299.365C202.998 299.902 201.493 300.171 199.789 300.171C197.189 300.171 195.118 299.63 193.576 298.547C192.042 297.456 191.142 295.973 190.878 294.098L196.235 293.817C196.397 294.61 196.789 295.215 197.411 295.632C198.033 296.041 198.83 296.246 199.801 296.246C200.756 296.246 201.523 296.063 202.103 295.696C202.691 295.321 202.989 294.84 202.998 294.252C202.989 293.757 202.78 293.353 202.371 293.037C201.962 292.713 201.331 292.466 200.479 292.296L197.078 291.618C195.161 291.235 193.733 290.57 192.796 289.624C191.867 288.678 191.402 287.472 191.402 286.006C191.402 284.745 191.743 283.658 192.425 282.746C193.115 281.834 194.083 281.131 195.327 280.637C196.58 280.142 198.046 279.895 199.725 279.895C202.205 279.895 204.157 280.419 205.58 281.468C207.012 282.516 207.847 283.943 208.086 285.75ZM224.555 291.426V280.151H230.001V299.787H224.772V296.22H224.567C224.124 297.371 223.387 298.296 222.356 298.995C221.333 299.693 220.085 300.043 218.61 300.043C217.298 300.043 216.143 299.745 215.146 299.148C214.148 298.551 213.369 297.703 212.806 296.604C212.252 295.505 211.971 294.188 211.962 292.654V280.151H217.408V291.682C217.417 292.841 217.728 293.757 218.342 294.431C218.955 295.104 219.778 295.441 220.809 295.441C221.465 295.441 222.079 295.291 222.65 294.993C223.221 294.686 223.681 294.235 224.031 293.638C224.388 293.041 224.563 292.304 224.555 291.426ZM239.803 273.605V299.787H234.357V273.605H239.803ZM254.61 280.151V284.242H242.785V280.151H254.61ZM245.469 275.446H250.915V293.753C250.915 294.256 250.992 294.648 251.146 294.929C251.299 295.202 251.512 295.394 251.785 295.505C252.066 295.615 252.39 295.671 252.756 295.671C253.012 295.671 253.268 295.649 253.523 295.607C253.779 295.556 253.975 295.517 254.112 295.492L254.968 299.544C254.695 299.63 254.312 299.728 253.817 299.838C253.323 299.958 252.722 300.03 252.015 300.056C250.702 300.107 249.552 299.932 248.563 299.532C247.583 299.131 246.82 298.509 246.275 297.665C245.729 296.821 245.461 295.756 245.469 294.469V275.446ZM266.819 300.171C264.833 300.171 263.116 299.749 261.667 298.905C260.227 298.053 259.114 296.868 258.33 295.351C257.546 293.826 257.154 292.057 257.154 290.046C257.154 288.017 257.546 286.245 258.33 284.728C259.114 283.202 260.227 282.017 261.667 281.174C263.116 280.321 264.833 279.895 266.819 279.895C268.805 279.895 270.518 280.321 271.958 281.174C273.407 282.017 274.523 283.202 275.308 284.728C276.092 286.245 276.484 288.017 276.484 290.046C276.484 292.057 276.092 293.826 275.308 295.351C274.523 296.868 273.407 298.053 271.958 298.905C270.518 299.749 268.805 300.171 266.819 300.171ZM266.844 295.952C267.748 295.952 268.502 295.696 269.107 295.185C269.712 294.665 270.168 293.958 270.475 293.063C270.79 292.168 270.948 291.149 270.948 290.007C270.948 288.865 270.79 287.847 270.475 286.952C270.168 286.057 269.712 285.35 269.107 284.83C268.502 284.31 267.748 284.05 266.844 284.05C265.933 284.05 265.165 284.31 264.543 284.83C263.93 285.35 263.465 286.057 263.15 286.952C262.843 287.847 262.69 288.865 262.69 290.007C262.69 291.149 262.843 292.168 263.15 293.063C263.465 293.958 263.93 294.665 264.543 295.185C265.165 295.696 265.933 295.952 266.844 295.952ZM280.025 299.787V280.151H285.305V283.577H285.509C285.867 282.358 286.468 281.438 287.312 280.816C288.156 280.185 289.127 279.87 290.227 279.87C290.499 279.87 290.793 279.887 291.109 279.921C291.424 279.955 291.701 280.002 291.94 280.061V284.894C291.684 284.817 291.33 284.749 290.879 284.689C290.427 284.63 290.013 284.6 289.638 284.6C288.837 284.6 288.121 284.774 287.491 285.124C286.869 285.465 286.374 285.942 286.008 286.556C285.65 287.169 285.471 287.877 285.471 288.678V299.787H280.025ZM294.755 299.787V280.151H300.201V299.787H294.755ZM297.491 277.62C296.681 277.62 295.987 277.351 295.407 276.814C294.836 276.269 294.551 275.617 294.551 274.858C294.551 274.108 294.836 273.465 295.407 272.928C295.987 272.382 296.681 272.11 297.491 272.11C298.301 272.11 298.991 272.382 299.562 272.928C300.142 273.465 300.431 274.108 300.431 274.858C300.431 275.617 300.142 276.269 299.562 276.814C298.991 277.351 298.301 277.62 297.491 277.62ZM310.163 300.158C308.911 300.158 307.794 299.941 306.814 299.506C305.834 299.063 305.058 298.411 304.487 297.55C303.925 296.681 303.643 295.598 303.643 294.303C303.643 293.212 303.844 292.296 304.244 291.554C304.645 290.813 305.19 290.216 305.881 289.765C306.571 289.313 307.355 288.972 308.233 288.742C309.119 288.512 310.048 288.35 311.02 288.256C312.162 288.137 313.082 288.026 313.781 287.924C314.48 287.813 314.987 287.651 315.303 287.438C315.618 287.225 315.776 286.909 315.776 286.492V286.415C315.776 285.605 315.52 284.979 315.009 284.536C314.506 284.093 313.79 283.871 312.861 283.871C311.881 283.871 311.101 284.088 310.521 284.523C309.942 284.949 309.558 285.486 309.371 286.134L304.334 285.725C304.589 284.532 305.092 283.5 305.842 282.631C306.592 281.753 307.56 281.08 308.744 280.611C309.938 280.134 311.318 279.895 312.886 279.895C313.977 279.895 315.021 280.023 316.018 280.279C317.024 280.534 317.915 280.931 318.69 281.468C319.474 282.005 320.092 282.695 320.544 283.539C320.996 284.374 321.222 285.375 321.222 286.543V299.787H316.057V297.064H315.903C315.588 297.678 315.166 298.219 314.638 298.688C314.109 299.148 313.474 299.51 312.733 299.774C311.991 300.03 311.135 300.158 310.163 300.158ZM311.723 296.399C312.524 296.399 313.232 296.242 313.845 295.926C314.459 295.603 314.94 295.168 315.29 294.622C315.639 294.077 315.814 293.459 315.814 292.769V290.685C315.643 290.796 315.409 290.898 315.111 290.992C314.821 291.077 314.493 291.158 314.126 291.235C313.76 291.303 313.393 291.367 313.027 291.426C312.661 291.478 312.328 291.524 312.03 291.567C311.391 291.661 310.832 291.81 310.355 292.015C309.878 292.219 309.507 292.496 309.243 292.845C308.979 293.186 308.847 293.613 308.847 294.124C308.847 294.865 309.115 295.432 309.652 295.824C310.197 296.208 310.888 296.399 311.723 296.399ZM341.015 300.107C339.523 300.107 338.172 299.723 336.962 298.956C335.76 298.181 334.806 297.043 334.098 295.543C333.4 294.034 333.05 292.185 333.05 289.995C333.05 287.745 333.412 285.874 334.137 284.382C334.861 282.882 335.824 281.762 337.026 281.02C338.236 280.27 339.561 279.895 341.002 279.895C342.101 279.895 343.017 280.083 343.75 280.458C344.492 280.824 345.088 281.284 345.54 281.838C346 282.384 346.35 282.921 346.588 283.449H346.755V273.605H352.188V299.787H346.819V296.642H346.588C346.333 297.188 345.971 297.729 345.502 298.266C345.042 298.794 344.441 299.233 343.699 299.583C342.966 299.932 342.071 300.107 341.015 300.107ZM342.74 295.773C343.618 295.773 344.36 295.534 344.965 295.057C345.578 294.571 346.047 293.894 346.371 293.024C346.703 292.155 346.87 291.137 346.87 289.969C346.87 288.801 346.708 287.787 346.384 286.926C346.06 286.066 345.591 285.401 344.978 284.932C344.364 284.463 343.618 284.229 342.74 284.229C341.846 284.229 341.091 284.472 340.478 284.958C339.864 285.443 339.4 286.117 339.084 286.978C338.769 287.838 338.611 288.836 338.611 289.969C338.611 291.111 338.769 292.121 339.084 292.999C339.408 293.868 339.873 294.55 340.478 295.044C341.091 295.53 341.846 295.773 342.74 295.773ZM365.614 300.171C363.594 300.171 361.856 299.762 360.398 298.943C358.95 298.117 357.833 296.949 357.049 295.441C356.265 293.924 355.873 292.13 355.873 290.059C355.873 288.039 356.265 286.266 357.049 284.74C357.833 283.215 358.937 282.026 360.36 281.174C361.792 280.321 363.471 279.895 365.397 279.895C366.692 279.895 367.898 280.104 369.015 280.522C370.14 280.931 371.12 281.549 371.955 282.375C372.799 283.202 373.455 284.242 373.924 285.495C374.393 286.739 374.627 288.196 374.627 289.867V291.363H358.046V287.988H369.501C369.501 287.203 369.33 286.509 368.989 285.904C368.648 285.299 368.175 284.826 367.57 284.485C366.974 284.135 366.279 283.961 365.487 283.961C364.66 283.961 363.927 284.152 363.288 284.536C362.657 284.911 362.163 285.418 361.805 286.057C361.447 286.688 361.263 287.391 361.255 288.166V291.375C361.255 292.347 361.434 293.186 361.792 293.894C362.158 294.601 362.674 295.147 363.339 295.53C364.004 295.914 364.792 296.105 365.704 296.105C366.309 296.105 366.863 296.02 367.366 295.85C367.869 295.679 368.299 295.424 368.657 295.083C369.015 294.742 369.288 294.324 369.475 293.83L374.512 294.162C374.256 295.372 373.732 296.429 372.94 297.333C372.156 298.228 371.141 298.926 369.897 299.429C368.661 299.924 367.234 300.171 365.614 300.171ZM385.618 278.169V273.605H407.121V278.169H399.105V299.787H393.634V278.169H385.618ZM412.513 300.12C411.669 300.12 410.945 299.821 410.339 299.225C409.743 298.62 409.445 297.895 409.445 297.051C409.445 296.216 409.743 295.5 410.339 294.904C410.945 294.307 411.669 294.009 412.513 294.009C413.331 294.009 414.047 294.307 414.661 294.904C415.274 295.5 415.581 296.216 415.581 297.051C415.581 297.614 415.436 298.13 415.146 298.598C414.865 299.059 414.494 299.429 414.034 299.711C413.574 299.983 413.067 300.12 412.513 300.12ZM425.69 273.605V299.787H420.154V273.605H425.69Z" fill="#F4F4F4"/>
<defs>
<filter id="filter0_d_17_38" x="0" y="163" width="384" height="89" filterUnits="userSpaceOnUse" color-interpolation-filters="sRGB">
<feFlood flood-opacity="0" result="BackgroundImageFix"/>
<feColorMatrix in="SourceAlpha" type="matrix" values="0 0 0 0 0 0 0 0 0 0 0 0 0 0 0 0 0 0 127 0" result="hardAlpha"/>
<feOffset dy="4"/>
<feGaussianBlur stdDeviation="2"/>
<feComposite in2="hardAlpha" operator="out"/>
<feColorMatrix type="matrix" values="0 0 0 0 0 0 0 0 0 0 0 0 0 0 0 0 0 0 0.25 0"/>
<feBlend mode="normal" in2="BackgroundImageFix" result="effect1_dropShadow_17_38"/>
<feBlend mode="normal" in="SourceGraphic" in2="effect1_dropShadow_17_38" result="shape"/>
</filter>
<filter id="filter1_d_17_38" x="0" y="0" width="384" height="89" filterUnits="userSpaceOnUse" color-interpolation-filters="sRGB">
<feFlood flood-opacity="0" result="BackgroundImageFix"/>
<feColorMatrix in="SourceAlpha" type="matrix" values="0 0 0 0 0 0 0 0 0 0 0 0 0 0 0 0 0 0 127 0" result="hardAlpha"/>
<feOffset dy="4"/>
<feGaussianBlur stdDeviation="2"/>
<feComposite in2="hardAlpha" operator="out"/>
<feColorMatrix type="matrix" values="0 0 0 0 0 0 0 0 0 0 0 0 0 0 0 0 0 0 0.25 0"/>
<feBlend mode="normal" in2="BackgroundImageFix" result="effect1_dropShadow_17_38"/>
<feBlend mode="normal" in="SourceGraphic" in2="effect1_dropShadow_17_38" result="shape"/>
</filter>
<filter id="filter2_d_17_38" x="81" y="81" width="384" height="90" filterUnits="userSpaceOnUse" color-interpolation-filters="sRGB">
<feFlood flood-opacity="0" result="BackgroundImageFix"/>
<feColorMatrix in="SourceAlpha" type="matrix" values="0 0 0 0 0 0 0 0 0 0 0 0 0 0 0 0 0 0 127 0" result="hardAlpha"/>
<feOffset dy="4"/>
<feGaussianBlur stdDeviation="2"/>
<feComposite in2="hardAlpha" operator="out"/>
<feColorMatrix type="matrix" values="0 0 0 0 0 0 0 0 0 0 0 0 0 0 0 0 0 0 0.25 0"/>
<feBlend mode="normal" in2="BackgroundImageFix" result="effect1_dropShadow_17_38"/>
<feBlend mode="normal" in="SourceGraphic" in2="effect1_dropShadow_17_38" result="shape"/>
</filter>
<filter id="filter3_d_17_38" x="81" y="244" width="384" height="89" filterUnits="userSpaceOnUse" color-interpolation-filters="sRGB">
<feFlood flood-opacity="0" result="BackgroundImageFix"/>
<feColorMatrix in="SourceAlpha" type="matrix" values="0 0 0 0 0 0 0 0 0 0 0 0 0 0 0 0 0 0 127 0" result="hardAlpha"/>
<feOffset dy="4"/>
<feGaussianBlur stdDeviation="2"/>
<feComposite in2="hardAlpha" operator="out"/>
<feColorMatrix type="matrix" values="0 0 0 0 0 0 0 0 0 0 0 0 0 0 0 0 0 0 0.25 0"/>
<feBlend mode="normal" in2="BackgroundImageFix" result="effect1_dropShadow_17_38"/>
<feBlend mode="normal" in="SourceGraphic" in2="effect1_dropShadow_17_38" result="shape"/>
</filter>
<linearGradient id="paint0_linear_17_38" x1="4" y1="203.5" x2="380" y2="203.5" gradientUnits="userSpaceOnUse">
<stop/>
<stop offset="1" stop-color="#EB0202"/>
</linearGradient>
<linearGradient id="paint1_linear_17_38" x1="4" y1="40.5" x2="380" y2="40.5" gradientUnits="userSpaceOnUse">
<stop/>
<stop offset="1" stop-color="#EB0202"/>
</linearGradient>
<linearGradient id="paint2_linear_17_38" x1="85" y1="122" x2="461" y2="122" gradientUnits="userSpaceOnUse">
<stop/>
<stop offset="1" stop-color="#EB0202"/>
</linearGradient>
<linearGradient id="paint3_linear_17_38" x1="85" y1="284.5" x2="461" y2="284.5" gradientUnits="userSpaceOnUse">
<stop/>
<stop offset="1" stop-color="#EB0202"/>
</linearGradient>
</defs>
</svg>
